<?xml version="1.0" encoding="UTF-8" standalone="no"?>
<!DOCTYPE svg PUBLIC "-//W3C//DTD SVG 1.1//EN" "http://www.w3.org/Graphics/SVG/1.1/DTD/svg11.dtd">
<svg width="100%" height="100%" viewBox="0 0 24 24" version="1.1" xmlns="http://www.w3.org/2000/svg" xmlns:xlink="http://www.w3.org/1999/xlink" xml:space="preserve" xmlns:serif="http://www.serif.com/" style="fill-rule:evenodd;clip-rule:evenodd;stroke-linejoin:round;stroke-miterlimit:2;">
    <g id="menu" transform="matrix(1.6277,0,0,1.6277,-7.53241,-7.21856)">
        <path d="M6,15L18,15C18.553,15 19,15.447 19,16L19,17C19,17.553 18.553,18 18,18L6,18C5.447,18 5,17.553 5,17L5,16C5,15.447 5.447,15 6,15ZM5,11L5,12C5,12.553 5.447,13 6,13L18,13C18.553,13 19,12.553 19,12L19,11C19,10.447 18.553,10 18,10L6,10C5.447,10 5,10.447 5,11ZM5,6L5,7C5,7.553 5.447,8 6,8L18,8C18.553,8 19,7.553 19,7L19,6C19,5.447 18.553,5 18,5L6,5C5.447,5 5,5.447 5,6Z" style="fill:rgb(240,240,240);fill-rule:nonzero;"/>
    </g>
</svg>
